<svg viewBox="0 0 1122.52 470.92" xmlns="http://www.w3.org/2000/svg" width="160" height="67">
<path fill="#ffffff" transform="matrix(0.13333333,0,0,-0.13333333,0,470.92)" d="m 3969.73,2230.29 c -93.36,-159.94 -143.58,-333.14 -53.28,-385.84 90.29,-52.7 208.72,63.02 302.08,222.96 104.65,179.29 131.96,339.92 53.28,385.85 -78.68,45.92 -197.43,-43.68 -302.08,-222.97" />
<path fill="#ffffff" transform="matrix(0.13333333,0,0,-0.13333333,0,470.92)" d="m 1212.64,2357.4 c -180.39,-41.94 -340.788,-124.34 -317.113,-226.18 23.676,-101.83 189.123,-108.48 369.503,-66.54 202.21,47.01 337.74,137.44 317.12,226.17 -20.64,88.74 -167.31,113.55 -369.51,66.55" />
<path fill="#ffffff" transform="matrix(0.13333333,0,0,-0.13333333,0,470.92)" d="m 5418.53,2357.4 c -180.39,-41.94 -340.79,-124.34 -317.11,-226.18 23.67,-101.83 189.12,-108.48 369.5,-66.54 202.21,47.01 337.74,137.44 317.12,226.17 -20.64,88.74 -167.31,113.55 -369.51,66.55" />
<path fill="#ffffff" transform="matrix(0.13333333,0,0,-0.13333333,0,470.92)" d="m 2193.43,1922.67 c 0,208.28 11.85,456.79 149.1,456.79 101.78,0 123.09,-111.22 123.09,-274.54 v -139.63 l -272.19,-52.09 z m 648.52,-369.23 c -71.01,-56.8 -203.57,-104.14 -328.99,-104.14 -170.43,0 -305.34,115.97 -319.53,418.93 h 631.95 v 134.91 c 0,298.24 -177.51,452.07 -471,452.07 -220.2,0 -400.26,-126.29 -499.25,-312.28 -53.16,-99.88 -83,-216.93 -83,-340.97 0,-7.44 0.22,-14.78 0.4,-22.14 8.24,-338.94 205.86,-586.14 548.72,-586.14 300.59,0 442.6,201.18 530.18,352.66 l -9.48,7.1" />
<path fill="#ffffff" transform="matrix(0.13333333,0,0,-0.13333333,0,470.92)" d="m 3697.19,1541.6 v 913.61 h -9.48 c -168.05,-42.59 -366.87,-87.57 -572.79,-106.5 v -9.48 c 130.19,-61.52 153.84,-113.61 153.84,-321.89 V 1541.6 c 0,-170.41 -14.18,-246.14 -130.15,-312.42 v -9.47 h 726.62 v 9.47 c -151.49,71 -168.04,142.01 -168.04,312.42" />
<path fill="#ffffff" transform="matrix(0.13333333,0,0,-0.13333333,0,470.92)" d="m 6595.9,1272.21 c -165.69,0 -189.36,265.08 -189.36,558.57 0,328.99 44.98,558.58 189.36,558.58 144.37,0 189.35,-229.59 189.35,-558.58 0,-293.49 -23.67,-558.57 -189.35,-558.57 z m 0,1190.52 c -207.75,0 -393.82,-85.75 -510.89,-236.5 -80.33,-103.44 -128.16,-237.48 -128.16,-395.45 0,-38.12 3.13,-75.07 8.85,-110.82 49.35,-308.2 303.58,-521.14 630.2,-521.14 364.48,0 639.05,265.1 639.05,631.96 0,388.15 -288.76,631.95 -639.05,631.95" />
<path fill="#ffffff" transform="matrix(0.13333333,0,0,-0.13333333,0,470.92)" d="m 8059.75,1541.6 v 1382.26 h -9.46 c -168.05,-42.62 -376.33,-87.58 -582.25,-106.52 v -9.47 c 130.19,-61.54 153.84,-113.6 153.84,-321.89 V 1541.6 c 0,-170.41 -14.18,-246.14 -130.17,-312.42 v -9.47 h 698.23 v 9.47 c -115.98,66.28 -130.19,142.01 -130.19,312.42" />
<path fill="#ffffff" transform="matrix(0.13333333,0,0,-0.13333333,0,470.92)" d="m 1415.87,1553.44 -6.6,3.55 c -63.84,-27.17 -133.98,-42.39 -207.75,-42.39 -293.391,0 -531.231,263.79 -531.231,557.19 0,139.21 53.613,265.85 141.234,360.58 2.754,4.45 5.711,8.77 8.582,13.15 l -10.449,7.52 -2.914,1.56 c -34.043,-3.3 -68.262,-9.31 -102.371,-18.56 -328.73,-89.1 -522.976,-453.75 -433.883,-782.47 89.106,-328.71 427.805,-522.96 756.522,-433.86 180.45,48.92 319.51,173.44 394.23,329.87 l -5.37,3.86" />
<path fill="#ffffff" transform="matrix(0.13333333,0,0,-0.13333333,0,470.92)" d="m 5600.71,1553.44 -1.82,0.98 c -62.26,-25.63 -130.42,-39.82 -201.92,-39.82 -293.4,0 -531.24,263.79 -531.24,557.19 0,139.21 53.61,265.85 141.24,360.58 3.19,5.16 6.6,10.18 9.95,15.24 l -7.54,5.43 -3.52,1.89 c -35.25,-3.21 -70.71,-9.31 -106.06,-18.89 -328.72,-89.1 -522.96,-453.75 -433.86,-782.47 89.1,-328.71 427.8,-522.96 756.52,-433.86 178.26,48.32 316.17,170.42 391.51,324.19 l -13.26,9.54" />
<path fill="#ffffff" transform="matrix(0.13333333,0,0,-0.13333333,0,470.92)" d="m 2264.79,2975.04 c -38.87,-97.06 -217.56,-72.84 -389.49,-4 -192.72,77.17 -298.8,181.46 -264.93,266.04 33.86,84.57 196.76,81.16 389.48,3.99 171.93,-68.84 303.79,-168.98 264.94,-266.03" />
<path fill="#ffffff" transform="matrix(0.13333333,0,0,-0.13333333,0,470.92)" d="m 4310.4,312.941 c -38.87,-97.062 -217.56,-72.839 -389.49,-4 -192.72,77.168 -298.8,181.457 -264.94,266.039 33.87,84.571 196.77,81.161 389.49,3.989 171.93,-68.84 303.79,-168.981 264.94,-266.028" />
</svg>