<svg version="1.1" id="Layer_1" xmlns="http://www.w3.org/2000/svg" xmlns:xlink="http://www.w3.org/1999/xlink" x="0px" y="0px"
	 width="100%" viewBox="0 0 192 192" enable-background="new 0 0 192 192" xml:space="preserve">
<path fill="#D0333A" opacity="1.000000" stroke="none" 
	d="
M23.240728,96.739487 
	C16.738270,89.584778 11.396523,82.290375 10.965627,72.411629 
	C10.436713,60.285721 18.455967,52.055565 29.416235,49.052185 
	C43.793732,45.112396 58.226952,46.570560 72.523895,49.331055 
	C95.466393,53.760857 117.035126,62.189865 137.703537,72.956642 
	C150.286636,79.511543 162.153885,87.086639 172.046463,97.482216 
	C177.160004,102.855751 180.694412,109.039078 182.539673,116.125824 
	C185.516602,127.558670 177.304230,141.284424 165.617554,144.702271 
	C153.290665,148.307373 140.843002,147.563126 128.358109,145.686752 
	C111.949791,143.220718 96.273560,138.180420 80.951393,132.019714 
	C59.870602,123.543579 39.590263,113.675453 23.240728,96.739487 
z"/>
</svg>